<svg xmlns="http://www.w3.org/2000/svg" width="112" height="32" viewBox="0 0 112 32" fill="none"><g clip-path="url(#clip0_2278_999)"><path d="M31.9559 17.1998H26.2402C21.2475 17.1998 17.2002 21.2472 17.2002 26.2398V31.9555C25.0801 31.3712 31.3716 25.0798 31.9559 17.1998Z" fill="#0A84FF"></path><path d="M14.8002 31.9555V26.2398C14.8002 21.2472 10.7529 17.1998 5.7602 17.1998H0.0445251C0.628792 25.0798 6.92028 31.3712 14.8002 31.9555Z" fill="#0A84FF"></path><path d="M31.9559 14.7998C31.3716 6.9199 25.0801 0.628411 17.2002 0.0441437V5.75982C17.2002 10.7525 21.2475 14.7998 26.2402 14.7998H31.9559Z" fill="#0A84FF"></path><path d="M14.8002 0.0441437C6.92028 0.628411 0.628792 6.9199 0.0445251 14.7998H5.7602C10.7529 14.7998 14.8002 10.7525 14.8002 5.75982V0.0441437Z" fill="#0A84FF"></path><path d="M10.8664 15.9998C13.0844 14.8916 14.892 13.084 16.0002 10.866C17.1084 13.084 18.9159 14.8916 21.134 15.9998C18.9159 17.108 17.1084 18.9156 16.0002 21.1336C14.892 18.9156 13.0844 17.108 10.8664 15.9998Z" fill="#0A84FF"></path></g><path d="M45.418 4.76C43.108 4.76 41.652 6.468 41.652 9.03C41.652 11.634 43.192 13.216 45.446 13.216C47.126 13.216 48.764 12.404 48.764 9.996V9.478H45.138V8.582H49.716V14.014H48.918L48.82 12.418C48.288 13.412 47.028 14.168 45.404 14.168C42.562 14.168 40.602 12.124 40.602 9.03C40.602 5.964 42.562 3.808 45.432 3.808C47.546 3.808 49.184 5.012 49.576 6.832H48.484C48.064 5.46 46.888 4.76 45.418 4.76ZM58.7078 14H52.7018V3.976H58.6938V4.9H53.7098V8.512H58.2318V9.422H53.7098V13.076H58.7078V14ZM62.3226 14H61.3146V3.976H62.3366L67.8526 12.32V3.976H68.8466V14H67.8526L62.3226 5.656V14ZM77.861 14H71.855V3.976H77.847V4.9H72.863V8.512H77.385V9.422H72.863V13.076H77.861V14ZM81.4758 14H80.4678V3.976H84.2058C86.2358 3.976 87.4678 5.096 87.4678 6.874C87.4678 8.316 86.7118 9.324 85.4238 9.674L87.5658 14H86.4458L84.4018 9.842H81.4758V14ZM81.4758 4.886V8.932H84.2338C85.6198 8.932 86.4318 8.176 86.4318 6.902C86.4318 5.6 85.5778 4.886 84.2058 4.886H81.4758ZM89.9828 14H88.9608L92.6428 3.976H93.8888L97.6128 14H96.5628L95.5828 11.34H90.9628L89.9828 14ZM93.1328 5.39L91.2708 10.458H95.2608L93.3848 5.39C93.3428 5.25 93.2728 5.082 93.2588 4.984C93.2448 5.068 93.1888 5.25 93.1328 5.39ZM100.574 3.976V13.076H105.18V14H99.5663V3.976H100.574ZM42.926 29H41.134V18.766H42.926V22.994H47.462V18.766H49.254V29H47.462V24.66H42.926V29ZM61.4226 23.876C61.4226 26.984 59.3786 29.168 56.4386 29.168C53.5126 29.168 51.4966 26.998 51.4966 23.876C51.4966 20.768 53.5266 18.584 56.4526 18.584C59.3786 18.584 61.4226 20.754 61.4226 23.876ZM59.5326 23.876C59.5326 21.692 58.3286 20.306 56.4526 20.306C54.5766 20.306 53.3726 21.692 53.3726 23.876C53.3726 26.06 54.5766 27.446 56.4526 27.446C58.3286 27.446 59.5326 26.032 59.5326 23.876ZM63.0625 21.622C63.0625 19.83 64.5465 18.584 66.7025 18.584C68.7745 18.584 70.0905 19.732 70.1465 21.58H68.3545C68.3125 20.698 67.6825 20.18 66.6745 20.18C65.5685 20.18 64.8545 20.712 64.8545 21.566C64.8545 22.294 65.2465 22.7 66.1005 22.896L67.7105 23.246C69.4605 23.624 70.3145 24.52 70.3145 26.046C70.3145 27.95 68.8305 29.182 66.5765 29.182C64.3925 29.182 62.9645 28.02 62.9225 26.186H64.7145C64.7285 27.054 65.4285 27.572 66.5765 27.572C67.7665 27.572 68.5225 27.054 68.5225 26.2C68.5225 25.514 68.1725 25.108 67.3325 24.926L65.7085 24.562C63.9725 24.184 63.0625 23.19 63.0625 21.622ZM76.5416 25.472H74.2876V29H72.4956V18.766H76.5416C78.5996 18.766 79.9296 20.11 79.9296 22.112C79.9296 24.086 78.5856 25.472 76.5416 25.472ZM76.1916 20.362H74.2876V23.876H76.1636C77.3956 23.876 78.0536 23.218 78.0536 22.098C78.0536 20.978 77.3816 20.362 76.1916 20.362ZM83.789 18.766V29H81.997V18.766H83.789ZM85.7216 20.418V18.766H93.5056V20.418H90.5096V29H88.7176V20.418H85.7216ZM95.4014 29H93.5394L97.2354 18.766H99.0694L102.765 29H100.875L100.049 26.634H96.2274L95.4014 29ZM97.9214 21.818L96.7594 25.122H99.5314L98.3554 21.818C98.2714 21.552 98.1734 21.244 98.1454 21.034C98.1034 21.23 98.0194 21.538 97.9214 21.818ZM106.401 18.766V27.348H110.685V29H104.609V18.766H106.401Z" fill="#0F3142"></path><defs><clipPath id="clip0_2278_999"><rect width="32" height="32" fill="white"></rect></clipPath></defs></svg>